REM MD5 0cb000a17d999d1ddb425ffd58a5e9a1
FILE "Euro Demo 14 (Europe).bin" BINARY
  TRACK 01 MODE2/2352
    INDEX 01 00:00:00
  TRACK 02 AUDIO
    INDEX 00 13:14:18
    INDEX 01 13:16:18
  TRACK 03 AUDIO
    INDEX 00 16:41:59
    INDEX 01 16:43:59
  TRACK 04 AUDIO
    INDEX 00 19:52:36
    INDEX 01 19:54:36
  TRACK 05 AUDIO
    INDEX 00 21:46:26
    INDEX 01 21:48:26
REM LEADOUT 26:21:68
